<svg width="90" height="83" viewBox="0 0 90 83" fill="none" xmlns="http://www.w3.org/2000/svg">
<g clip-path="url(#clip0_1_137)">
<path d="M44.9627 3.57129C21.1967 3.57129 1.93066 21.1738 1.93066 42.8876C1.93066 52.7674 5.92014 61.7952 12.5065 68.7019L26.3929 78.3637C32.0149 80.8247 38.3125 82.2038 44.9627 82.2038C68.7287 82.2038 87.9948 64.6014 87.9948 42.8876C87.9948 21.1738 68.7287 3.57129 44.9627 3.57129Z" fill="#FFC839"/>
<path d="M47.7502 67.6418L47.642 67.4611C47.0158 66.4158 47.4394 65.0924 48.5836 64.5203L48.7153 64.4545C47.5167 65.0539 45.9994 64.6484 45.3434 63.5535C44.6874 62.4586 45.1312 61.0722 46.3296 60.4729C45.131 61.0722 43.6138 60.6667 42.9576 59.5716C42.3016 58.4766 42.7455 57.0904 43.9439 56.4909C42.7453 57.0902 41.2279 56.6847 40.5719 55.5897C39.9159 54.4947 40.3598 53.1084 41.5583 52.5089L44.7948 50.8902L44.3015 50.0668C43.9391 49.462 43.3103 49.0279 42.5746 48.8745C39.8847 48.314 37.0922 49.305 35.5218 51.3776C34.1072 53.2968 35.5302 50.9563 31.9443 58.4702C31.713 58.9715 31.3029 59.3865 30.7806 59.6479L12.5068 68.7035C16.3453 72.7288 21.0656 76.0331 26.3933 78.3653L39.3021 71.968C39.656 71.791 40.0496 71.6906 40.4527 71.6744L44.377 71.5169C44.7801 71.5007 45.1737 71.4003 45.5276 71.2233L50.7157 68.6284L50.5488 68.6658C49.4913 68.9722 48.3018 68.5625 47.7502 67.6418Z" fill="#FCAD6D"/>
<path d="M55.3495 66.3591L42.4635 44.7871L33.4082 46.6929L47.5054 70.2921C48.6941 72.2712 51.4137 72.9951 53.5799 71.909C55.7459 70.823 56.5382 68.3382 55.3495 66.3591Z" fill="#3C58A0"/>
<path d="M41.5377 52.0208C40.5395 50.3498 41.5628 48.2699 43.593 47.8425L44.2107 47.7125L42.4633 44.7871L33.4082 46.6931L47.5054 70.2923C48.6711 72.2332 51.3092 72.9658 53.4538 71.9687L41.5377 52.0208Z" fill="#2A428C"/>
<path d="M47.4788 67.7776L47.3706 67.5969C46.7443 66.5516 47.1681 65.2281 48.3123 64.6559L54.976 61.3232C56.1201 60.7509 57.5686 61.1382 58.195 62.1835L58.3032 62.3642C58.9295 63.4095 58.5057 64.7329 57.3616 65.3052L50.6978 68.6379C49.5537 69.2101 48.1052 68.8229 47.4788 67.7776Z" fill="#F9BA8F"/>
<path d="M45.0729 63.6885C44.4168 62.5934 44.8607 61.2071 46.0592 60.6077L54.0486 56.6121C55.2471 56.0127 56.7645 56.4182 57.4205 57.5132C58.0765 58.6081 57.6327 59.9944 56.4343 60.5939L48.445 64.5896C47.2462 65.1891 45.7289 64.7834 45.0729 63.6885Z" fill="#F9BA8F"/>
<path d="M42.6871 59.7066C42.0311 58.6115 42.4749 57.2252 43.6733 56.6258L52.1597 52.3816C53.3583 51.7823 54.8756 52.1878 55.5316 53.2827C56.1877 54.3778 55.7438 55.7641 54.5454 56.3634L46.059 60.6076C44.8605 61.207 43.3431 60.8015 42.6871 59.7066Z" fill="#F9BA8F"/>
<path d="M52.1031 49.8229C51.4471 48.7278 49.9297 48.3223 48.7311 48.9217L41.2877 52.6442C40.0891 53.2435 39.6453 54.6298 40.3015 55.7249C40.9575 56.82 42.4749 57.2255 43.6734 56.626L51.1167 52.9035C52.3152 52.3041 52.7591 50.9179 52.1031 49.8229Z" fill="#F9BA8F"/>
<path d="M31.0615 59.4819C31.1729 60.9029 31.837 63.1012 34.803 63.6133C36.7754 63.9538 38.7716 61.6639 38.7716 61.6639C41.2681 58.4772 41.2804 56.125 41.1111 55.1005C41.0963 55.0118 41.2274 54.9717 41.2746 55.0503L41.9113 56.1129C42.1342 56.4849 42.4258 56.8003 42.7632 57.0546C43.5628 57.5867 44.6574 57.6853 45.5827 57.2226C46.4386 56.7945 46.9309 55.996 46.9527 55.1644C46.9778 54.208 46.5076 53.7896 44.3014 50.0658C44.1344 49.7872 43.8887 49.5154 43.5809 49.3025C43.5799 49.3018 43.579 49.301 43.5781 49.3004C43.2899 49.1014 42.9478 48.9513 42.5747 48.8735C39.8848 48.313 37.0923 49.3041 35.5219 51.3766C34.1073 53.2958 35.5303 50.9553 31.9445 58.4692C31.7564 58.8765 31.4492 59.2248 31.0615 59.4819Z" fill="#FCAD6D"/>
<path d="M43.8469 54.0471L44.9818 55.9411C45.2808 56.44 45.9398 56.6493 46.506 56.4504C46.785 56.0692 46.9401 55.6222 46.952 55.1649C46.9743 54.3155 46.5861 53.921 45.439 51.9668L44.3366 52.5181C43.7415 52.8155 43.5212 53.5037 43.8469 54.0471Z" fill="#F9DFCD"/>
<path d="M35.7753 62.7838C35.6086 62.5028 35.6685 62.1441 35.9411 61.9225C40.4696 58.2413 39.799 54.1497 39.7918 54.1088C39.7231 53.7249 40.0084 53.363 40.4285 53.3003C40.8488 53.2377 41.2451 53.4982 41.3132 53.882C41.3485 54.0802 42.1206 58.7843 36.9659 62.9748C36.6479 63.2333 36.1606 63.2073 35.8777 62.9168C35.8371 62.8753 35.803 62.8306 35.7753 62.7838Z" fill="#FD995B"/>
<path d="M29.1366 46.0487L24.0664 25.9381C24.0326 25.804 24.0174 25.6702 24.0165 25.5381C18.0317 27.0868 14.3683 32.6716 15.7799 38.2708C17.1915 43.8701 23.1602 47.4279 29.2832 46.4283C29.2209 46.3093 29.1705 46.1828 29.1366 46.0487Z" fill="#E9EFFF"/>
<path d="M17.0137 41.169C19.4191 45.0364 24.2997 47.2417 29.2828 46.4284C29.2203 46.3093 29.1699 46.1829 29.136 46.0487L27.5953 39.9377C27.4605 39.8738 27.3214 39.7994 27.1781 39.7129C27.1785 39.7129 22.7646 43.9712 17.0137 41.169Z" fill="#D3DCFB"/>
<path d="M57.4412 12.0498C52.828 16.9882 46.7762 20.6028 40.0156 22.4929C40.0241 22.5207 40.0342 22.5476 40.0414 22.576L45.1116 42.6866C45.1188 42.715 45.1225 42.7432 45.1283 42.7716C52.1126 41.769 59.2852 42.6004 65.7983 45.1973L76.7055 49.5462C76.0642 47.0023 65.8083 6.32312 65.1669 3.7793L57.4412 12.0498Z" fill="#E9EFFF"/>
<path d="M60.7294 8.52947L66.2064 28.7559C67.0993 32.0536 64.2127 35.205 60.5048 34.9511C56.1231 34.651 50.2406 34.7596 43.8613 36.2981C43.8613 36.2981 43.7835 36.4759 43.6016 36.6977L45.1115 42.6866C45.1187 42.715 45.1226 42.7432 45.1282 42.7716C52.1125 41.769 59.2851 42.6004 65.7982 45.1973L76.7054 49.5462C76.0641 47.0023 65.8082 6.32312 65.1668 3.7793L60.7294 8.52947Z" fill="#D3DCFB"/>
<path d="M82.1916 20.9427C76.9549 21.2076 73.5127 19.0127 73.5127 19.0127C73.9246 20.6466 76.5017 30.8686 76.9164 32.5133C76.9164 32.5133 78.9607 29.1638 83.7966 27.3088C84.5734 27.0108 85.0111 26.2532 84.8219 25.503L83.9784 22.1568C83.7892 21.4066 83.0329 20.9002 82.1916 20.9427Z" fill="#E9EFFF"/>
<path d="M84.3258 23.5353C83.416 23.8713 82.6105 24.2263 81.9123 24.5755C80.0467 25.5083 77.7233 24.5554 77.2459 22.6619C77.0358 21.8288 76.8282 21.0053 76.6544 20.3157C74.6675 19.7477 73.5127 19.0127 73.5127 19.0127C73.9246 20.6466 76.5017 30.8686 76.9164 32.5133C76.9164 32.5133 78.9607 29.1638 83.7966 27.3088C84.5736 27.0108 85.0111 26.2532 84.822 25.503L84.3258 23.5353Z" fill="#D3DCFB"/>
<path d="M79.6587 52.3279C78.3825 52.5965 77.1098 51.8691 76.8157 50.7031L64.7124 2.69618C64.4184 1.53018 65.2146 0.367389 66.4908 0.0987562C67.767 -0.169876 69.0397 0.557549 69.3337 1.72355L81.437 49.7304C81.731 50.8964 80.9348 52.0592 79.6587 52.3279Z" fill="#FF4155"/>
<path d="M81.4374 49.7306L76.6576 30.7715C76.4712 31.6591 75.7325 32.4072 74.7066 32.6232C73.6543 32.8446 72.6052 32.4419 72.0205 31.6814L76.8162 50.7031C77.1102 51.8691 78.3829 52.5965 79.6591 52.3279C80.9353 52.0594 81.7314 50.8964 81.4374 49.7306Z" fill="#E80054"/>
<path d="M37.9902 21.1368L25.2216 23.8241C24.1472 24.0502 23.4768 25.0292 23.7242 26.0108L28.7944 46.1214C29.0419 47.103 30.1135 47.7153 31.1879 47.4892L43.9565 44.8019C45.0309 44.5758 45.7013 43.5968 45.4537 42.6152L40.3835 22.5047C40.1362 21.5232 39.0646 20.9107 37.9902 21.1368Z" fill="#FF4155"/>
<path d="M40.6274 37.3856L30.6299 39.4897C30.6299 39.4897 29.4374 41.0766 27.1787 39.7135L28.7942 46.1214C29.0417 47.103 30.1133 47.7154 31.1877 47.4893L43.9563 44.802C45.0307 44.5759 45.7009 43.5968 45.4535 42.6152L43.8609 36.2988C43.8609 36.2988 43.0718 38.1061 40.6274 37.3856Z" fill="#E80054"/>
<path d="M31.6625 23.9134C31.0627 23.9134 30.5205 23.5364 30.38 22.9797L29.5075 19.5191C29.3442 18.8715 29.7866 18.2252 30.4955 18.0762C31.2042 17.9261 31.9117 18.3312 32.0749 18.9788L32.9473 22.4394C33.1106 23.0871 32.6682 23.7333 31.9593 23.8824C31.8599 23.9033 31.7603 23.9134 31.6625 23.9134Z" fill="#BEC8F7"/>
<path d="M28.8731 20.606C28.2733 20.606 27.7311 20.2291 27.5906 19.6725C27.4272 19.025 27.8696 18.3789 28.5785 18.2298L32.2937 17.4481C33.0027 17.2984 33.7097 17.7029 33.873 18.3506C34.0364 18.9982 33.5939 19.6443 32.885 19.7933L29.1699 20.575C29.0705 20.596 28.9711 20.606 28.8731 20.606Z" fill="#E9EFFF"/>
<path d="M27.5105 27.1154C27.3471 26.4678 27.7896 25.8217 28.4985 25.6727L35.9287 24.1093C36.6376 23.9595 37.3447 24.3643 37.5081 25.0118C37.6714 25.6593 37.229 26.3055 36.5201 26.4545L29.0898 28.0179C28.3825 28.1671 27.674 27.764 27.5105 27.1154Z" fill="#CC0053"/>
<path d="M28.5495 31.2402C28.3862 30.5926 28.8286 29.9465 29.5375 29.7975L36.9678 28.2341C37.6767 28.0849 38.3838 28.4891 38.5471 29.1366C38.7105 29.7842 38.268 30.4303 37.5592 30.5793L30.1289 32.1427C29.4218 32.2919 28.7131 31.8889 28.5495 31.2402Z" fill="#CC0053"/>
<path d="M29.5896 35.3643C29.4262 34.7168 29.8685 34.0707 30.5776 33.9216L38.0078 32.3581C38.7169 32.2089 39.4238 32.6131 39.5872 33.2606C39.7505 33.9082 39.3083 34.5543 38.5992 34.7033L31.1689 36.2668C30.4618 36.416 29.7533 36.013 29.5896 35.3643Z" fill="#CC0053"/>
<path d="M30.6296 39.4885C30.4663 38.8409 30.9085 38.1948 31.6176 38.0458L39.0479 36.4823C39.7569 36.3327 40.464 36.7372 40.6272 37.3847C40.7905 38.0323 40.3483 38.6784 39.6392 38.8274L32.209 40.391C31.5019 40.5402 30.7931 40.1373 30.6296 39.4885Z" fill="#CC0053"/>
<path d="M31.6697 43.6134C31.5063 42.9659 31.9487 42.3198 32.6576 42.1707L40.0879 40.6074C40.7964 40.4575 41.5041 40.8621 41.6672 41.5099C41.8306 42.1574 41.3882 42.8035 40.6793 42.9526L33.249 44.5159C32.5419 44.6652 31.8332 44.2623 31.6697 43.6134Z" fill="#CC0053"/>
<path d="M39.3021 71.9679C27.338 70.7359 31.0619 59.4829 31.0619 59.4824C30.972 59.5421 30.8789 59.5984 30.7806 59.6477L12.5068 68.7034C16.3453 72.7287 21.0656 76.033 26.3934 78.3651L39.3021 71.9679Z" fill="#FD995B"/>
</g>
<defs>
<clipPath id="clip0_1_137">
<rect width="89.9275" height="82.1624" fill="white" transform="translate(-0.000976562 0.0429688)"/>
</clipPath>
</defs>
</svg>
